<svg width="67" height="67" viewBox="0 0 67 67" fill="none" xmlns="http://www.w3.org/2000/svg">
<path d="M36.8226 66.3637H30.2349C24.7429 66.3637 20.292 61.9128 20.292 56.4207V49.683C20.292 47.8826 18.8326 46.4187 17.0276 46.4187H10.2899C4.79784 46.4187 0.346924 41.9678 0.346924 36.4757V29.888C0.346924 24.396 4.79784 19.945 10.2899 19.945H14.1543C15.5728 19.945 16.723 21.0953 16.723 22.5137C16.723 23.9322 15.5728 25.0825 14.1543 25.0825H10.2899C7.63479 25.0825 5.47979 27.2374 5.47979 29.8925V36.4803C5.47979 39.1354 7.63479 41.2904 10.2899 41.2904H17.0276C21.665 41.2904 25.4294 45.0502 25.4294 49.6921V56.4298C25.4294 59.0849 27.5844 61.2399 30.2395 61.2399H36.8272C39.4823 61.2399 41.6373 59.0849 41.6373 56.4298V51.447C41.6373 47.2416 40.0006 43.2862 37.0272 40.3129L26.416 29.697C22.4742 25.7508 20.3011 20.5088 20.3011 14.9304V9.94296C20.3011 4.45092 24.752 0 30.244 0H36.8317C42.3238 0 46.7747 4.45092 46.7747 9.94296V16.6807C46.7747 18.4811 48.2341 19.945 50.039 19.945H56.7768C62.2688 19.945 66.7197 24.396 66.7197 29.888V36.4757C66.7197 41.9678 62.2688 46.4187 56.7768 46.4187H52.9169C51.4984 46.4187 50.3481 45.2684 50.3481 43.85C50.3481 42.4315 51.4984 41.2813 52.9169 41.2813H56.7768C59.4319 41.2813 61.5868 39.1263 61.5868 36.4712V29.8834C61.5868 27.2283 59.4319 25.0734 56.7768 25.0734H50.0299C45.3926 25.0734 41.6327 21.3135 41.6327 16.6762V9.94296C41.6327 7.28787 39.4777 5.13288 36.8226 5.13288H30.2349C27.5798 5.13288 25.4248 7.28332 25.4248 9.94296V14.9258C25.4248 19.1312 27.0615 23.0866 30.0349 26.0599L40.6462 36.6712C44.5924 40.6129 46.7611 45.8595 46.7611 51.4379V56.4207C46.7656 61.9082 42.3147 66.3637 36.8226 66.3637Z" fill="#199A8E"/>
</svg>
